<svg width="56" height="58" viewBox="0 0 56 58" fill="none" xmlns="http://www.w3.org/2000/svg">
<path d="M24.2643 8.7379L47.5058 31.9793C48.5798 33.0533 48.5798 34.8147 47.5058 35.9102C46.4318 36.9842 44.6919 37.0056 43.5964 35.9316L43.5749 35.9102C42.5009 34.8576 40.7825 34.8791 39.7085 35.9316L26.4768 49.1634C25.4028 50.2374 23.6629 50.2374 22.5889 49.1634C21.5149 48.0894 21.5149 46.3495 22.5889 45.2755L35.885 31.9793C36.9161 30.9483 36.9161 29.2514 35.885 28.2203L35.7562 28.0914C34.7251 27.0604 33.0282 27.0604 31.9972 28.0914L12.7725 47.3161C11.6985 48.3901 9.95861 48.3901 8.88461 47.3161C8.3476 46.7791 8.08984 46.0702 8.08984 45.3829C8.08984 44.674 8.3476 43.9867 8.88461 43.4497L28.0663 24.268C28.6033 23.731 28.8611 23.0221 28.8611 22.3348C28.8611 21.6259 28.6033 20.9386 28.0663 20.4016C26.9923 19.3276 25.2524 19.3276 24.1784 20.4016L14.899 29.6809C13.825 30.755 12.0851 30.755 11.0111 29.6809C10.4741 29.1439 10.2164 28.4351 10.2164 27.7477C10.2164 27.0389 10.4956 26.3515 11.0111 25.8145L20.355 16.4707C21.386 15.4397 21.386 13.7427 20.355 12.7117L20.312 12.6687C19.775 12.1317 19.4958 11.4229 19.4958 10.7141C19.4958 10.0052 19.775 9.29638 20.312 8.75938C21.429 7.66389 23.1903 7.66389 24.2643 8.7379Z" fill="#FE724C"/>
<path d="M49.0722 7.19142C54.7644 12.8836 55.4303 21.6905 51.0699 28.113C50.1677 29.4448 48.2775 29.6381 47.1175 28.4996L27.764 9.14611C26.6256 8.00767 26.7974 6.11742 28.1506 5.19378C34.5732 0.833327 43.38 1.49921 49.0722 7.19142Z" fill="#FE724C"/>
<path d="M54.071 6.03246C55.1363 4.96714 55.1363 3.2399 54.071 2.17457C53.0057 1.10924 51.2784 1.10925 50.2131 2.17457C49.1478 3.2399 49.1478 4.96713 50.2131 6.03246C51.2785 7.09779 53.0057 7.09779 54.071 6.03246Z" fill="#FE724C"/>
<rect x="1.94287" y="35.1567" width="6.5122" height="5.44227" rx="2.72114" transform="rotate(-45 1.94287 35.1567)" fill="#FE724C"/>
<rect x="0.145508" y="52.2334" width="6.5122" height="5.44227" rx="2.72114" transform="rotate(-45 0.145508 52.2334)" fill="#FE724C"/>
<rect x="13.627" y="54.031" width="6.5122" height="5.44227" rx="2.72114" transform="rotate(-45 13.627 54.031)" fill="#FE724C"/>
</svg>
